<svg width="32" height="38" viewBox="0 0 32 38" fill="none" xmlns="http://www.w3.org/2000/svg">
<path d="M3.5 6.76562V26.8125C3.4997 28.796 4.25385 30.7053 5.6095 32.1533C6.96515 33.6012 8.82078 34.4793 10.8 34.6094L11.3125 34.625H25.1062C24.7832 35.5388 24.1848 36.33 23.3934 36.8896C22.6021 37.4493 21.6567 37.7499 20.6875 37.75H9.75C7.2636 37.75 4.87903 36.7623 3.12087 35.0041C1.36272 33.246 0.375001 30.8614 0.375001 28.375V11.1875C0.374492 10.2177 0.674774 9.27168 1.23446 8.47972C1.79415 7.68776 2.58569 7.08888 3.5 6.76562ZM26.9375 0.25C28.1807 0.25 29.373 0.74386 30.2521 1.62294C31.1311 2.50201 31.625 3.6943 31.625 4.9375V26.8125C31.625 28.0557 31.1311 29.248 30.2521 30.1271C29.373 31.0061 28.1807 31.5 26.9375 31.5H11.3125C10.0693 31.5 8.87701 31.0061 7.99794 30.1271C7.11886 29.248 6.625 28.0557 6.625 26.8125V4.9375C6.625 3.6943 7.11886 2.50201 7.99794 1.62294C8.87701 0.74386 10.0693 0.25 11.3125 0.25H26.9375ZM26.9375 3.375H11.3125C10.8981 3.375 10.5007 3.53962 10.2076 3.83265C9.91462 4.12567 9.75 4.5231 9.75 4.9375V26.8125C9.75 27.2269 9.91462 27.6243 10.2076 27.9174C10.5007 28.2104 10.8981 28.375 11.3125 28.375H26.9375C27.3519 28.375 27.7493 28.2104 28.0424 27.9174C28.3354 27.6243 28.5 27.2269 28.5 26.8125V4.9375C28.5 4.5231 28.3354 4.12567 28.0424 3.83265C27.7493 3.53962 27.3519 3.375 26.9375 3.375Z" fill="white"/>
</svg>
