<svg width="87" height="55" viewBox="0 0 87 55" fill="none" xmlns="http://www.w3.org/2000/svg">
<path d="M42.3168 43.8624V4.81587C42.3168 4.21963 42.1927 3.62923 41.9516 3.07838C41.7105 2.52752 41.3572 2.027 40.9117 1.6054C40.4662 1.18379 39.9374 0.849355 39.3553 0.621183C38.7733 0.393012 38.1495 0.275574 37.5195 0.275574H4.89788C3.62556 0.275574 2.40535 0.753925 1.50568 1.6054C0.606014 2.45687 0.100586 3.61171 0.100586 4.81587V44.7705C0.100586 46.4563 0.808185 48.0731 2.06772 49.2652C3.32725 50.4572 5.03555 51.1269 6.8168 51.1269H47.9356C47.9538 51.1271 47.9718 51.1238 47.9886 51.1173C48.0054 51.1108 48.0207 51.1012 48.0335 51.089C48.0464 51.0769 48.0565 51.0624 48.0634 51.0465C48.0703 51.0306 48.0737 51.0136 48.0736 50.9964C48.0735 50.9679 48.0635 50.9401 48.045 50.9176C48.0266 50.895 48.0008 50.8788 47.9716 50.8715C46.3484 50.4501 44.9161 49.5362 43.8946 48.27C42.8731 47.0039 42.3188 45.4555 42.3168 43.8624ZM7.77626 11.1723C7.77626 10.6906 7.97843 10.2287 8.3383 9.8881C8.69817 9.54751 9.18625 9.35617 9.69518 9.35617H17.3709C17.8798 9.35617 18.3679 9.54751 18.7277 9.8881C19.0876 10.2287 19.2898 10.6906 19.2898 11.1723V18.4368C19.2898 18.9184 19.0876 19.3804 18.7277 19.721C18.3679 20.0615 17.8798 20.2529 17.3709 20.2529H9.69518C9.18625 20.2529 8.69817 20.0615 8.3383 19.721C7.97843 19.3804 7.77626 18.9184 7.77626 18.4368V11.1723ZM32.7222 42.0463H9.74915C8.71653 42.0463 7.83023 41.2949 7.77866 40.3176C7.76616 40.072 7.80646 39.8266 7.89714 39.5963C7.98781 39.3659 8.12696 39.1553 8.30615 38.9774C8.48534 38.7994 8.70085 38.6577 8.93961 38.5609C9.17837 38.464 9.43542 38.4141 9.69518 38.4141H32.6682C33.7009 38.4141 34.5872 39.1655 34.6387 40.1428C34.6512 40.3884 34.6109 40.6338 34.5202 40.8641C34.4296 41.0945 34.2904 41.3051 34.1112 41.4831C33.932 41.661 33.7165 41.8027 33.4778 41.8995C33.239 41.9964 32.982 42.0463 32.7222 42.0463ZM32.7222 34.7818H9.74915C8.71653 34.7818 7.83023 34.0304 7.77866 33.0531C7.76616 32.8076 7.80646 32.5622 7.89714 32.3318C7.98781 32.1014 8.12696 31.8909 8.30615 31.7129C8.48534 31.5349 8.70085 31.3932 8.93961 31.2964C9.17837 31.1996 9.43542 31.1496 9.69518 31.1496H32.6682C33.7009 31.1496 34.5872 31.901 34.6387 32.8783C34.6512 33.1239 34.6109 33.3693 34.5202 33.5997C34.4296 33.83 34.2904 34.0406 34.1112 34.2186C33.932 34.3966 33.7165 34.5382 33.4778 34.6351C33.239 34.7319 32.982 34.7818 32.7222 34.7818ZM32.7222 27.5174H9.74915C8.71653 27.5174 7.83023 26.7659 7.77866 25.7886C7.76616 25.5431 7.80646 25.2977 7.89714 25.0673C7.98781 24.8369 8.12696 24.6264 8.30615 24.4484C8.48534 24.2704 8.70085 24.1287 8.93961 24.0319C9.17837 23.9351 9.43542 23.8852 9.69518 23.8851H32.6682C33.7009 23.8851 34.5872 24.6365 34.6387 25.6138C34.6512 25.8594 34.6109 26.1048 34.5202 26.3352C34.4296 26.5656 34.2904 26.7761 34.1112 26.9541C33.932 27.1321 33.7165 27.2738 33.4778 27.3706C33.239 27.4674 32.982 27.5173 32.7222 27.5174ZM32.7222 20.2529H25.1005C24.0679 20.2529 23.1816 19.5015 23.13 18.5242C23.1175 18.2786 23.1578 18.0332 23.2485 17.8028C23.3392 17.5725 23.4783 17.3619 23.6575 17.1839C23.8367 17.0059 24.0522 16.8643 24.291 16.7674C24.5297 16.6706 24.7868 16.6207 25.0465 16.6207H32.6682C33.7009 16.6207 34.5872 17.3721 34.6387 18.3494C34.6512 18.5949 34.6109 18.8403 34.5202 19.0707C34.4296 19.3011 34.2904 19.5116 34.1112 19.6896C33.932 19.8676 33.7165 20.0093 33.4778 20.1061C33.239 20.2029 32.982 20.2529 32.7222 20.2529ZM32.7222 12.9884H25.1005C24.0679 12.9884 23.1816 12.237 23.13 11.2597C23.1175 11.0141 23.1578 10.7687 23.2485 10.5384C23.3392 10.308 23.4783 10.0974 23.6575 9.91944C23.8367 9.74147 24.0522 9.59977 24.291 9.50295C24.5297 9.40613 24.7868 9.35619 25.0465 9.35617H32.6682C33.7009 9.35617 34.5872 10.1076 34.6387 11.0849C34.6512 11.3304 34.6109 11.5759 34.5202 11.8062C34.4296 12.0366 34.2904 12.2472 34.1112 12.4251C33.932 12.6031 33.7165 12.7448 33.4778 12.8416C33.239 12.9385 32.982 12.9884 32.7222 12.9884Z" fill="#F8F8F8"/>
<path d="M80.3412 33.3344H72.814C72.3668 33.3343 71.9311 33.4759 71.5695 33.7391C71.208 34.0023 70.9393 34.3734 70.802 34.799C70.4426 35.9221 69.7351 36.9017 68.7821 37.5961C67.829 38.2905 66.6798 38.6637 65.5006 38.6617C64.3213 38.6639 63.172 38.2907 62.2189 37.5963C61.2658 36.9019 60.5584 35.9222 60.1991 34.799C60.0617 34.3733 59.7928 34.0022 59.4311 33.739C59.0694 33.4759 58.6336 33.3342 58.1863 33.3344H50.6591C50.3813 33.3344 50.1063 33.3891 49.8496 33.4953C49.593 33.6016 49.3598 33.7574 49.1633 33.9538C48.9669 34.1503 48.8111 34.3835 48.7048 34.6401C48.5986 34.8968 48.5439 35.1718 48.5439 35.4496V47.5128C48.5443 48.0736 48.7673 48.6113 49.1639 49.0078C49.5605 49.4043 50.0983 49.627 50.6591 49.6271H80.3412C80.6189 49.6272 80.8939 49.5726 81.1505 49.4663C81.4071 49.3601 81.6402 49.2044 81.8366 49.0081C82.033 48.8117 82.1889 48.5786 82.2952 48.3221C82.4015 48.0655 82.4563 47.7905 82.4563 47.5128V35.4496C82.4563 34.2804 81.5103 33.3344 80.3412 33.3344Z" fill="#00D5F2"/>
<path d="M65.0563 34.4619C65.1625 34.6107 65.3363 34.6997 65.519 34.6997H65.5203C65.7043 34.6997 65.8755 34.6107 65.983 34.4598L71.8327 26.2326C71.8929 26.1473 71.9285 26.0471 71.9358 25.9429C71.9431 25.8388 71.9217 25.7346 71.874 25.6418C71.8262 25.5488 71.7536 25.4708 71.6643 25.4165C71.575 25.3622 71.4724 25.3336 71.3679 25.3339H68.6163V17.943C68.6163 17.627 68.3613 17.3729 68.0474 17.3729H62.9536C62.6389 17.3729 62.3847 17.627 62.3847 17.943V25.3339H59.631C59.5267 25.334 59.4244 25.3629 59.3353 25.4173C59.2462 25.4717 59.1739 25.5496 59.1261 25.6424C59.0783 25.7352 59.057 25.8393 59.0644 25.9434C59.0719 26.0475 59.1078 26.1475 59.1683 26.2326L65.0563 34.4619Z" fill="#00D5F2"/>
</svg>
