<svg width="517" height="557" viewBox="0 0 517 557" fill="none" xmlns="http://www.w3.org/2000/svg">
<g filter="url(#filter0_d_337_11988)">
<path d="M368.506 245.407C430.052 246.195 449.077 141.994 392.918 113.647C379.967 104.986 392.459 87.0064 400.253 78.4761L429.479 39.893C449.765 6.69044 495.036 87.6626 500.308 108.66C534.233 205.774 482.888 323.624 393.147 347.771C357.847 352.626 321.744 348.821 286.329 350.002C277.275 350.002 273.264 345.54 273.149 335.435C272.691 310.631 272.347 285.959 272.003 261.287C271.888 251.313 275.212 246.982 283.808 246.851C298.707 246.588 313.492 246.72 328.392 246.72C333.893 246.457 355.211 245.407 368.506 245.407Z" fill="url(#paint0_linear_337_11988)"/>
</g>
<path d="M0 100.131L67.4499 14.9153C74.4861 7.11569 83.9084 1.87025 94.2422 0L359.35 1.06385C375.504 0.724711 391.503 4.25817 406.013 11.369C409.89 13.171 412.98 16.322 414.707 20.2348C415.826 22.8938 416.25 25.7943 415.937 28.6625C412.685 33.9889 409.418 39.3015 406.138 44.6001L403.928 46.8321L368.483 92.9967L357.119 103.636H273.99C271.171 104.625 268.65 106.32 266.669 108.558C264.687 110.796 263.31 113.503 262.669 116.423C261.897 122.681 263.315 125.477 264.9 126.979C267.186 128.699 269.796 129.94 272.573 130.629H372.653C368.483 138.431 296.696 224.356 296.696 224.356L286.771 230.76H277.743L268.84 229.509C265.204 230.607 262.147 233.096 260.334 236.435C259.674 237.74 259.25 239.153 259.083 240.607C260.236 302.048 261.376 363.483 262.502 424.91C262.391 442.55 257.56 459.837 248.512 474.976L193.071 547.988L185.795 555.79C184.212 556.575 182.455 556.944 180.69 556.864C178.925 556.783 177.21 556.255 175.705 555.329C174.2 554.403 172.955 553.11 172.086 551.57C171.218 550.031 170.755 548.296 170.741 546.528L172.492 113.378C171.931 110.706 170.639 108.243 168.76 106.264C167.217 104.758 165.38 103.587 163.364 102.822C161.348 102.058 159.196 101.717 157.042 101.821L0 100.131Z" fill="url(#paint1_linear_337_11988)"/>
<defs>
<filter id="filter0_d_337_11988" x="270" y="30" width="246.834" height="326.317" filterUnits="userSpaceOnUse" color-interpolation-filters="sRGB">
<feFlood flood-opacity="0" result="BackgroundImageFix"/>
<feColorMatrix in="SourceAlpha" type="matrix" values="0 0 0 0 0 0 0 0 0 0 0 0 0 0 0 0 0 0 127 0" result="hardAlpha"/>
<feOffset dx="2" dy="2"/>
<feGaussianBlur stdDeviation="2"/>
<feComposite in2="hardAlpha" operator="out"/>
<feColorMatrix type="matrix" values="0 0 0 0 0 0 0 0 0 0 0 0 0 0 0 0 0 0 0.25 0"/>
<feBlend mode="normal" in2="BackgroundImageFix" result="effect1_dropShadow_337_11988"/>
<feBlend mode="normal" in="SourceGraphic" in2="effect1_dropShadow_337_11988" result="shape"/>
</filter>
<linearGradient id="paint0_linear_337_11988" x1="391.417" y1="32" x2="391.417" y2="350.317" gradientUnits="userSpaceOnUse">
<stop stop-color="#94ECFF"/>
<stop offset="1" stop-color="#0263AA" stop-opacity="0.92"/>
</linearGradient>
<linearGradient id="paint1_linear_337_11988" x1="416" y1="-115" x2="76.5" y2="627.5" gradientUnits="userSpaceOnUse">
<stop offset="0.310285" stop-color="#E4EFEF"/>
<stop offset="0.576706" stop-color="#9AD5FF"/>
<stop offset="0.710072" stop-color="#74BFF6"/>
<stop offset="0.92181" stop-color="#0A4169"/>
</linearGradient>
</defs>
</svg>
