<svg width="85" height="92" viewBox="0 0 85 92" fill="none" xmlns="http://www.w3.org/2000/svg">
<g filter="url(#filter0_d_74_7859)">
<path d="M2 17.4102C5.108 12.6965 8.97153 8.91773 12.4058 4.53515C13.831 2.8016 15.5653 2.04195 17.6774 2.04195C30.4184 2.0809 43.1423 2.15882 55.8662 2.003C59.2661 1.94456 62.3741 2.74316 65.4135 4.20402C66.5983 4.78836 66.7872 5.52853 65.9286 6.65826C64.263 8.87877 62.5459 11.0603 60.8459 13.2419C59.1459 15.4234 58.3046 17.7218 55.3339 17.566C52.0714 17.3712 43.2625 15.7351 42.2666 20.1761C41.9403 21.2084 42.3696 21.5201 43.3484 21.5201H56.742C57.4632 21.5785 59.9702 21.2668 58.9399 22.7082C55.8147 26.7986 52.3633 30.5774 49.1523 34.5704C47.6584 36.3624 45.9241 37.3753 43.6746 37.1999C42.3868 37.0831 42.0434 37.5506 42.0605 39.0114C42.0434 48.5167 42.1121 58.0221 42.2151 67.5274C42.2151 69.9427 41.7171 72.0853 40.1717 73.9162C37.3213 78.104 34.986 81.8438 31.4659 85.3499C27.7912 88.2326 28.6498 80.7141 28.4437 78.6883C28.1175 59.0544 29.4225 39.2062 28.0488 19.6696C27.568 17.975 26.9327 17.4881 25.3357 17.4881C17.54 17.4297 9.81292 17.605 2 17.4102Z" fill="white"/>
<path d="M55.8724 2.50296L55.8748 2.50292C59.1846 2.44604 62.2151 3.22184 65.1946 4.65358C65.743 4.92447 65.9111 5.16208 65.949 5.33423C65.9883 5.51258 65.9342 5.82453 65.5305 6.35572L65.5286 6.35824C64.1548 8.18971 62.7462 9.99424 61.3377 11.7986C61.0422 12.1772 60.7467 12.5557 60.4515 12.9345C60.1075 13.376 59.7959 13.8247 59.5041 14.2449C59.4267 14.3564 59.3507 14.4659 59.2758 14.5728C58.9127 15.0909 58.574 15.5503 58.2056 15.9343C57.4947 16.6753 56.6774 17.1353 55.3619 17.0668C54.9229 17.0405 54.3606 16.9849 53.7177 16.9212C52.0781 16.759 49.9134 16.5447 47.9281 16.6331C46.5354 16.6951 45.1637 16.9054 44.0607 17.4131C42.9465 17.926 42.0794 18.7585 41.7835 20.0458C41.6144 20.5913 41.5727 21.1601 41.9488 21.5723C42.2961 21.9528 42.8545 22.0201 43.3484 22.0201H56.7233C56.869 22.0302 57.0732 22.0292 57.2781 22.0281C57.3641 22.0277 57.4502 22.0273 57.5322 22.0277C57.8496 22.0292 58.1597 22.0412 58.4062 22.0871C58.5287 22.1099 58.6144 22.1375 58.6687 22.1639C58.6709 22.165 58.6729 22.166 58.6749 22.167C58.6606 22.2105 58.6248 22.2883 58.5375 22.4114C56.7179 24.7924 54.8069 27.0449 52.8877 29.3069C51.5075 30.9337 50.123 32.5655 48.7654 34.2536C47.3415 35.9603 45.7537 36.8594 43.7166 36.7017C43.0444 36.6411 42.412 36.7074 41.9989 37.1882C41.6201 37.6293 41.5523 38.2908 41.5605 39.0138C41.5434 48.52 41.6121 58.0256 41.7151 67.53C41.7147 69.873 41.2328 71.8839 39.7896 73.5937L39.7729 73.6135L39.7584 73.6348C39.3652 74.2125 38.9825 74.7804 38.606 75.3393C36.2451 78.8434 34.1234 81.9923 31.1344 84.9743C30.7172 85.298 30.4078 85.4404 30.1905 85.4843C29.9911 85.5245 29.8703 85.4838 29.7733 85.4107C29.6563 85.3226 29.5297 85.1512 29.4141 84.8591C29.3004 84.5718 29.2129 84.2075 29.1484 83.7844C29.0191 82.9374 28.992 81.9298 28.9861 80.9861C28.9848 80.7743 28.9846 80.5638 28.9844 80.3585C28.9838 79.6875 28.9833 79.0731 28.9433 78.6595C28.821 71.271 28.9306 63.8307 29.0403 56.379C29.2212 44.1014 29.4025 31.793 28.5476 19.6346L28.5439 19.583L28.5298 19.5332C28.2818 18.6591 27.967 17.9864 27.4224 17.5524C26.8709 17.1128 26.1733 16.9883 25.3376 16.9881C22.307 16.9654 19.295 16.9779 16.2878 16.9903C11.8388 17.0087 7.40003 17.0271 2.92628 16.9315C4.33056 14.8973 5.87397 13.0252 7.46024 11.1738C7.89088 10.6712 8.32529 10.1695 8.76092 9.66631C10.1192 8.09747 11.4895 6.51474 12.7957 4.84824C14.1219 3.23735 15.7113 2.54213 17.6766 2.54195C19.4986 2.54752 21.3204 2.55389 23.142 2.56026C34.0563 2.59841 44.9644 2.63654 55.8724 2.50296ZM58.6835 22.1221C58.6839 22.1219 58.6843 22.1248 58.6836 22.1311C58.6827 22.1254 58.6831 22.1222 58.6835 22.1221Z" stroke="white"/>
</g>
<g filter="url(#filter1_d_74_7859)">
<path d="M57.761 37.4306C66.9452 37.5468 69.7843 22.1597 61.4039 17.9738C59.4713 16.6948 61.3355 14.0398 62.4985 12.7801L66.8597 7.08265C69.8869 2.1797 76.6425 14.1367 77.4293 17.2374C82.4917 31.578 74.8296 48.9806 61.4381 52.5464C56.1704 53.2634 50.783 52.7014 45.4983 52.8758C44.1471 52.8758 43.5485 52.2169 43.5314 50.7247C43.463 47.062 43.4117 43.4187 43.3604 39.7754C43.3433 38.3026 43.8393 37.6631 45.122 37.6437C47.3454 37.605 49.5516 37.6244 51.775 37.6244C52.5959 37.5856 55.7771 37.4306 57.761 37.4306Z" fill="url(#paint0_angular_74_7859)"/>
</g>
<defs>
<filter id="filter0_d_74_7859" x="0" y="0" width="72.46" height="92" filterUnits="userSpaceOnUse" color-interpolation-filters="sRGB">
<feFlood flood-opacity="0" result="BackgroundImageFix"/>
<feColorMatrix in="SourceAlpha" type="matrix" values="0 0 0 0 0 0 0 0 0 0 0 0 0 0 0 0 0 0 127 0" result="hardAlpha"/>
<feOffset dx="2" dy="2"/>
<feGaussianBlur stdDeviation="2"/>
<feComposite in2="hardAlpha" operator="out"/>
<feColorMatrix type="matrix" values="0 0 0 0 0 0 0 0 0 0 0 0 0 0 0 0 0 0 0.25 0"/>
<feBlend mode="normal" in2="BackgroundImageFix" result="effect1_dropShadow_74_7859"/>
<feBlend mode="normal" in="SourceGraphic" in2="effect1_dropShadow_74_7859" result="shape"/>
</filter>
<filter id="filter1_d_74_7859" x="41.36" y="3.91711" width="43.64" height="55.0052" filterUnits="userSpaceOnUse" color-interpolation-filters="sRGB">
<feFlood flood-opacity="0" result="BackgroundImageFix"/>
<feColorMatrix in="SourceAlpha" type="matrix" values="0 0 0 0 0 0 0 0 0 0 0 0 0 0 0 0 0 0 127 0" result="hardAlpha"/>
<feOffset dx="2" dy="2"/>
<feGaussianBlur stdDeviation="2"/>
<feComposite in2="hardAlpha" operator="out"/>
<feColorMatrix type="matrix" values="0 0 0 0 0 0 0 0 0 0 0 0 0 0 0 0 0 0 0.25 0"/>
<feBlend mode="normal" in2="BackgroundImageFix" result="effect1_dropShadow_74_7859"/>
<feBlend mode="normal" in="SourceGraphic" in2="effect1_dropShadow_74_7859" result="shape"/>
</filter>
<radialGradient id="paint0_angular_74_7859" cx="0" cy="0" r="1" gradientUnits="userSpaceOnUse" gradientTransform="translate(61.18 29.4197) rotate(147.93) scale(44.2648 33.0428)">
<stop offset="0.0688569" stop-color="#E69951"/>
<stop offset="0.0693339" stop-color="#BF3EC3"/>
<stop offset="0.232292" stop-color="#130AE6"/>
<stop offset="0.543162" stop-color="#BC304B"/>
<stop offset="1" stop-color="#E69951"/>
</radialGradient>
</defs>
</svg>
