<svg width="57" height="57" viewBox="0 0 57 57" fill="none" xmlns="http://www.w3.org/2000/svg">
<path d="M10.6302 0.523438C5.00586 0.523438 0.477173 5.05212 0.477173 10.6764V45.9747C0.477173 51.599 5.00586 56.1276 10.6302 56.1276H29.7615V34.3899H24.0135V26.5636H29.7615V19.8772C29.7615 14.624 33.1578 9.80066 40.9814 9.80066C44.1491 9.80066 46.4915 10.1048 46.4915 10.1048L46.3073 17.4133C46.3073 17.4133 43.9183 17.3907 41.3116 17.3907C38.4903 17.3907 38.0379 18.6906 38.0379 20.8486V26.5636H46.5314L46.1613 34.3899H38.0379V56.1277H45.9284C51.5528 56.1277 56.0814 51.599 56.0814 45.9747V10.6765C56.0814 5.05217 51.5528 0.523493 45.9284 0.523493H10.6301L10.6302 0.523438Z" fill="white"/>
</svg>
