<svg width="55" height="55" viewBox="0 0 55 55" fill="none" xmlns="http://www.w3.org/2000/svg">
<path d="M27.3605 18.4242C22.4229 18.4242 18.3934 22.4538 18.3934 27.3916C18.3934 32.3293 22.4229 36.3589 27.3605 36.3589C32.2982 36.3589 36.3277 32.3293 36.3277 27.3916C36.3277 22.4538 32.2982 18.4242 27.3605 18.4242ZM54.2553 27.3916C54.2553 23.6782 54.289 19.9984 54.0804 16.2917C53.8719 11.9863 52.8898 8.16525 49.7415 5.01692C46.5865 1.86187 42.7722 0.886427 38.4669 0.677884C34.7536 0.469341 31.0739 0.502978 27.3673 0.502978C23.6539 0.502978 19.9742 0.469341 16.2676 0.677884C11.9623 0.886427 8.1413 1.8686 4.99304 5.01692C1.83804 8.17198 0.862616 11.9863 0.654077 16.2917C0.445538 20.0051 0.479174 23.6849 0.479174 27.3916C0.479174 31.0982 0.445538 34.7847 0.654077 38.4914C0.862616 42.7968 1.84477 46.6179 4.99304 49.7662C8.14803 52.9213 11.9623 53.8967 16.2676 54.1052C19.9809 54.3138 23.6606 54.2801 27.3673 54.2801C31.0806 54.2801 34.7603 54.3138 38.4669 54.1052C42.7722 53.8967 46.5932 52.9145 49.7415 49.7662C52.8965 46.6111 53.8719 42.7968 54.0804 38.4914C54.2957 34.7847 54.2553 31.105 54.2553 27.3916ZM27.3605 41.189C19.7253 41.189 13.5633 35.0269 13.5633 27.3916C13.5633 19.7562 19.7253 13.5941 27.3605 13.5941C34.9958 13.5941 41.1577 19.7562 41.1577 27.3916C41.1577 35.0269 34.9958 41.189 27.3605 41.189ZM41.7228 16.2513C39.9401 16.2513 38.5006 14.8117 38.5006 13.029C38.5006 11.2463 39.9401 9.80668 41.7228 9.80668C43.5055 9.80668 44.9451 11.2463 44.9451 13.029C44.9456 13.4523 44.8626 13.8716 44.7009 14.2628C44.5391 14.654 44.3018 15.0094 44.0025 15.3087C43.7032 15.608 43.3477 15.8454 42.9566 16.0071C42.5654 16.1689 42.1461 16.2519 41.7228 16.2513Z" fill="white"/>
</svg>
