<svg width="58" height="59" viewBox="0 0 58 59" fill="none" xmlns="http://www.w3.org/2000/svg">
<path d="M11.7308 0.655762C5.54218 0.655762 0.477173 5.72066 0.477173 11.9094V46.8313C0.477173 53.0199 5.54207 58.0831 11.7308 58.0831H46.6528C52.8414 58.0831 57.9045 53.02 57.9045 46.8313V11.9094C57.9045 5.72077 52.8414 0.655762 46.6528 0.655762H11.7308ZM14.5612 10.1324C17.5285 10.1324 19.3563 12.0804 19.4127 14.641C19.4127 17.1451 17.5284 19.1478 14.5038 19.1478H14.4482C11.5373 19.1478 9.65595 17.1452 9.65595 14.641C9.65595 12.0805 11.5943 10.1324 14.5612 10.1324H14.5612ZM40.1322 22.1004C45.8389 22.1004 50.1168 25.8303 50.1168 33.8457V48.8091H41.4442V34.8489C41.4442 31.3409 40.1891 28.9475 37.0505 28.9475C34.6545 28.9475 33.2263 30.5607 32.5993 32.119C32.3702 32.6765 32.3139 33.4552 32.3139 34.2351V48.8091H23.6413C23.6413 48.8091 23.7551 25.161 23.6413 22.7123H32.3157V26.4079C33.4682 24.6298 35.5297 22.1003 40.1322 22.1003V22.1004ZM10.1675 22.7142H18.8401V48.8093H10.1675V22.7142Z" fill="white"/>
</svg>
