<svg width="33" height="33" viewBox="0 0 33 33" fill="none" xmlns="http://www.w3.org/2000/svg">
<path d="M29.1623 0.350708H4.26394C2.29875 0.350708 0.707031 1.94243 0.707031 3.90762V28.806C0.707031 30.7712 2.29875 32.3629 4.26394 32.3629H29.1623C31.1275 32.3629 32.7192 30.7712 32.7192 28.806V3.90762C32.7192 1.94243 31.1275 0.350708 29.1623 0.350708Z" fill="white"/>
<path d="M21.595 8.22607H24.3162L18.3713 15.0207L25.365 24.2667H19.8881L15.5991 18.659L10.6915 24.2667H7.96874L14.3274 16.999L7.61914 8.22607H13.2333L17.1102 13.3517L21.5934 8.22607H21.595ZM20.64 22.6379H22.1478L12.4149 9.76926H10.7968L20.64 22.6379Z" fill="black"/>
</svg>
