<svg width="55" height="55" viewBox="0 0 55 55" fill="none" xmlns="http://www.w3.org/2000/svg">
<path d="M48.2827 0.456543H6.45286C3.15129 0.456543 0.477173 3.13066 0.477173 6.43223V48.262C0.477173 51.5636 3.15129 54.2377 6.45286 54.2377H48.2827C51.5842 54.2377 54.2583 51.5636 54.2583 48.262V6.43223C54.2583 3.13066 51.5842 0.456543 48.2827 0.456543ZM42.4564 19.9194C42.4564 20.1763 42.4564 20.4303 42.4564 20.9442C42.4564 30.6756 35.0286 41.9457 21.4548 41.9457C17.3585 41.9457 13.5161 40.6639 10.1877 38.6173C10.6986 38.6173 11.4694 38.6173 11.9804 38.6173C15.3088 38.6173 18.6403 37.3355 21.2009 35.5428C17.8724 35.5428 15.3118 33.2392 14.287 30.4216C14.7979 30.4216 15.3118 30.6786 15.5688 30.6786C16.3366 30.6786 16.8506 30.6786 17.6184 30.4216C14.29 29.6537 11.7294 26.8362 11.7294 23.2508C12.7542 23.7617 13.7791 24.0187 15.0578 24.2756C13.0082 22.4829 11.7294 20.4333 11.7294 17.8727C11.7294 16.5909 11.9863 15.3121 12.7542 14.2873C16.3396 18.6406 21.7178 21.715 27.8637 21.969C27.8637 21.4581 27.6068 20.9442 27.6068 20.1763C27.6068 16.08 30.9352 12.7485 35.0346 12.7485C37.0842 12.7485 39.1309 13.5164 40.4127 15.0522C42.2054 14.7952 43.7411 14.0273 45.0229 13.2594C44.512 15.0522 43.2302 16.3339 41.6945 17.3558C43.2302 17.0988 44.512 16.8449 46.0478 16.074C45.017 17.6157 43.7382 18.8945 42.4564 19.9194Z" fill="white"/>
</svg>
