<svg width="34" height="23" viewBox="0 0 34 23" fill="none" xmlns="http://www.w3.org/2000/svg">
<path d="M1.70344 3.1277L15.3766 10.4729C15.836 10.719 16.4304 10.8357 17.0283 10.8357C17.6263 10.8357 18.2206 10.719 18.6801 10.4729L32.3532 3.1277C33.2447 2.64822 34.087 0.783203 32.4517 0.783203H1.60682C-0.0284967 0.783203 0.813771 2.64822 1.70344 3.1277ZM32.7671 7.14397L18.6801 14.4856C18.0602 14.8101 17.6263 14.8483 17.0283 14.8483C16.4304 14.8483 15.9965 14.8101 15.3766 14.4856C14.7568 14.161 2.37251 7.66902 1.3607 7.14214C0.649693 6.77023 0.656985 7.20595 0.656985 7.5414V20.8372C0.656985 21.6029 1.68885 22.6603 2.48008 22.6603H31.6495C32.4407 22.6603 33.4726 21.6029 33.4726 20.8372V7.54322C33.4726 7.20778 33.4799 6.77206 32.7671 7.14397Z" fill="white"/>
</svg>
