<svg width="30" height="30" viewBox="0 0 30 30" fill="none" xmlns="http://www.w3.org/2000/svg">
<path d="M26.2191 14.5081H29.2576C29.2576 6.71437 23.3736 0.836426 15.5692 0.836426V3.87491C21.7404 3.87491 26.2191 8.34604 26.2191 14.5081Z" fill="white"/>
<path d="M15.5841 9.95189C18.7791 9.95189 20.1418 11.3147 20.1418 14.5096H23.1803C23.1803 9.61006 20.4836 6.91341 15.5841 6.91341V9.95189ZM20.7829 18.2211C20.491 17.9558 20.1074 17.8143 19.7131 17.8265C19.3188 17.8387 18.9446 18.0036 18.6697 18.2865L15.0341 22.0253C14.159 21.8582 12.3998 21.3097 10.5888 19.5034C8.77788 17.6909 8.22943 15.9271 8.06688 15.0581L11.8027 11.421C12.0859 11.1462 12.2511 10.772 12.2633 10.3776C12.2755 9.98317 12.1337 9.59949 11.868 9.30773L6.25442 3.13505C5.98862 2.84238 5.61919 2.66485 5.22461 2.64017C4.83002 2.61549 4.44135 2.74561 4.14115 3.00288L0.844398 5.83019C0.581738 6.0938 0.424965 6.44464 0.403818 6.81617C0.381029 7.19598 -0.0534741 16.1929 6.92289 23.1723C13.009 29.2569 20.6325 29.702 22.7321 29.702C23.039 29.702 23.2274 29.6929 23.2775 29.6899C23.649 29.6691 23.9997 29.5116 24.262 29.2478L27.0878 25.9495C27.3452 25.6495 27.4756 25.261 27.4512 24.8664C27.4268 24.4718 27.2496 24.1023 26.9571 23.8362L20.7829 18.2211Z" fill="white"/>
</svg>
